<mxfile host="Electron" agent="Mozilla/5.0 (Windows NT 10.0; Win64; x64) AppleWebKit/537.36 (KHTML, like Gecko) draw.io/26.2.2 Chrome/134.0.6998.178 Electron/35.1.2 Safari/537.36" version="26.2.2">
  <diagram id="C5RBs43oDa-KdzZeNtuy" name="Page-1">
    <mxGraphModel dx="420" dy="528" grid="1" gridSize="10" guides="1" tooltips="1" connect="1" arrows="1" fold="1" page="1" pageScale="1" pageWidth="827" pageHeight="1169" math="0" shadow="0">
      <root>
        <mxCell id="WIyWlLk6GJQsqaUBKTNV-0" />
        <mxCell id="WIyWlLk6GJQsqaUBKTNV-1" parent="WIyWlLk6GJQsqaUBKTNV-0" />
        <mxCell id="WIyWlLk6GJQsqaUBKTNV-2" value="" style="rounded=0;html=1;jettySize=auto;orthogonalLoop=1;fontSize=11;endArrow=block;endFill=0;endSize=8;strokeWidth=1;shadow=0;labelBackgroundColor=none;edgeStyle=orthogonalEdgeStyle;" parent="WIyWlLk6GJQsqaUBKTNV-1" edge="1">
          <mxGeometry relative="1" as="geometry">
            <mxPoint x="220" y="120" as="sourcePoint" />
            <mxPoint x="220" y="170" as="targetPoint" />
          </mxGeometry>
        </mxCell>
        <mxCell id="cwM_jXPK6qJFv0cd3IHT-0" value="START" style="ellipse;whiteSpace=wrap;html=1;" vertex="1" parent="WIyWlLk6GJQsqaUBKTNV-1">
          <mxGeometry x="110" y="50" width="180" height="70" as="geometry" />
        </mxCell>
        <mxCell id="cwM_jXPK6qJFv0cd3IHT-3" value="" style="edgeStyle=orthogonalEdgeStyle;rounded=0;orthogonalLoop=1;jettySize=auto;html=1;" edge="1" parent="WIyWlLk6GJQsqaUBKTNV-1" source="cwM_jXPK6qJFv0cd3IHT-1" target="cwM_jXPK6qJFv0cd3IHT-2">
          <mxGeometry relative="1" as="geometry" />
        </mxCell>
        <mxCell id="cwM_jXPK6qJFv0cd3IHT-1" value="Khởi tạo I2C và MPU6050" style="rounded=0;whiteSpace=wrap;html=1;" vertex="1" parent="WIyWlLk6GJQsqaUBKTNV-1">
          <mxGeometry x="110" y="140" width="180" height="40" as="geometry" />
        </mxCell>
        <mxCell id="cwM_jXPK6qJFv0cd3IHT-5" value="" style="edgeStyle=orthogonalEdgeStyle;rounded=0;orthogonalLoop=1;jettySize=auto;html=1;" edge="1" parent="WIyWlLk6GJQsqaUBKTNV-1" source="cwM_jXPK6qJFv0cd3IHT-2" target="cwM_jXPK6qJFv0cd3IHT-4">
          <mxGeometry relative="1" as="geometry" />
        </mxCell>
        <mxCell id="cwM_jXPK6qJFv0cd3IHT-2" value="Lặp liên tục đọc dữ liệu gia tốc từ MPU6050" style="whiteSpace=wrap;html=1;rounded=0;" vertex="1" parent="WIyWlLk6GJQsqaUBKTNV-1">
          <mxGeometry x="110" y="200" width="180" height="50" as="geometry" />
        </mxCell>
        <mxCell id="cwM_jXPK6qJFv0cd3IHT-7" value="" style="edgeStyle=orthogonalEdgeStyle;rounded=0;orthogonalLoop=1;jettySize=auto;html=1;" edge="1" parent="WIyWlLk6GJQsqaUBKTNV-1" source="cwM_jXPK6qJFv0cd3IHT-4" target="cwM_jXPK6qJFv0cd3IHT-6">
          <mxGeometry relative="1" as="geometry" />
        </mxCell>
        <mxCell id="cwM_jXPK6qJFv0cd3IHT-4" value="Tính toán độ lướn tổng hợp (acc_mag, gyro_mag)" style="whiteSpace=wrap;html=1;rounded=0;" vertex="1" parent="WIyWlLk6GJQsqaUBKTNV-1">
          <mxGeometry x="110" y="270" width="180" height="50" as="geometry" />
        </mxCell>
        <mxCell id="cwM_jXPK6qJFv0cd3IHT-14" style="edgeStyle=orthogonalEdgeStyle;rounded=0;orthogonalLoop=1;jettySize=auto;html=1;exitX=1;exitY=0.5;exitDx=0;exitDy=0;" edge="1" parent="WIyWlLk6GJQsqaUBKTNV-1" source="cwM_jXPK6qJFv0cd3IHT-6">
          <mxGeometry relative="1" as="geometry">
            <mxPoint x="200" y="260" as="targetPoint" />
            <mxPoint x="380" y="375" as="sourcePoint" />
            <Array as="points">
              <mxPoint x="360" y="370" />
              <mxPoint x="360" y="260" />
            </Array>
          </mxGeometry>
        </mxCell>
        <mxCell id="cwM_jXPK6qJFv0cd3IHT-17" value="" style="edgeStyle=orthogonalEdgeStyle;rounded=0;orthogonalLoop=1;jettySize=auto;html=1;" edge="1" parent="WIyWlLk6GJQsqaUBKTNV-1" source="cwM_jXPK6qJFv0cd3IHT-6" target="cwM_jXPK6qJFv0cd3IHT-12">
          <mxGeometry relative="1" as="geometry" />
        </mxCell>
        <mxCell id="cwM_jXPK6qJFv0cd3IHT-6" value="acc_mag &amp;lt; 0.5&amp;nbsp; &amp;amp;&amp;amp;&amp;nbsp; gyro_mag &amp;gt; 2500" style="rhombus;whiteSpace=wrap;html=1;rounded=0;" vertex="1" parent="WIyWlLk6GJQsqaUBKTNV-1">
          <mxGeometry x="80" y="330" width="240" height="80" as="geometry" />
        </mxCell>
        <mxCell id="cwM_jXPK6qJFv0cd3IHT-15" style="edgeStyle=orthogonalEdgeStyle;rounded=0;orthogonalLoop=1;jettySize=auto;html=1;exitX=1;exitY=0.5;exitDx=0;exitDy=0;" edge="1" parent="WIyWlLk6GJQsqaUBKTNV-1" source="cwM_jXPK6qJFv0cd3IHT-12">
          <mxGeometry relative="1" as="geometry">
            <mxPoint x="360" y="370" as="targetPoint" />
          </mxGeometry>
        </mxCell>
        <mxCell id="cwM_jXPK6qJFv0cd3IHT-12" value="Gửi thông tin té nga" style="whiteSpace=wrap;html=1;rounded=0;" vertex="1" parent="WIyWlLk6GJQsqaUBKTNV-1">
          <mxGeometry x="100" y="440" width="200" height="50" as="geometry" />
        </mxCell>
      </root>
    </mxGraphModel>
  </diagram>
</mxfile>
